<?xml version="1.0" encoding="utf-8"?>
<svg xmlns="http://www.w3.org/2000/svg" viewBox="0 0 781.999 241.75" xmlns:bx="https://boxy-svg.com" width="781.999px" height="241.75px"><defs><style>@import url(https://fonts.googleapis.com/css2?family=Rokkitt%3Aital%2Cwght%400%2C100..900%3B1%2C100..900&amp;display=swap);</style><view id="view-1" viewBox="0 0 240 240"><title>View 1</title></view></defs><path d="M 40 0 L 200 0 C 222.091 0 240 17.909 240 40 L 240 200 C 240 222.091 222.091 240 200 240 L 40 240 C 17.909 240 0 222.091 0 200 L 0 40 C 0 17.909 17.909 0 40 0 Z M 188.285 40.035 C 161.644 42.195 109.711 52.891 80.716 81.886 C 60.568 102.047 56.236 124.299 57.608 141.237 C 57.916 145.247 62.728 146.677 65.563 143.842 L 108.318 101.122 C 111.118 98.322 115.7 98.322 118.502 101.122 C 121.302 103.922 121.302 108.505 118.502 111.305 L 68.591 161.259 C 68.236 161.602 67.951 161.99 67.723 162.402 L 67.563 162.242 L 42.1 187.717 C 39.3 190.517 39.3 195.1 42.1 197.9 C 44.9 200.7 49.483 200.7 52.283 197.9 L 75.585 174.597 C 78.9 177.145 82.5 179.214 86.546 180.287 C 100.774 184.117 122.958 184.654 144.604 170.334 C 148.49 167.785 146.455 162.242 141.804 162.242 L 136.718 162.242 C 135.095 162.242 133.782 160.939 133.782 159.317 C 133.782 158.014 134.615 156.894 135.85 156.517 L 166.959 147.214 C 168.044 146.87 168.992 146.197 169.632 145.27 C 171.027 143.237 172.399 141.167 173.667 139.03 C 175.645 135.762 173.199 131.682 169.37 131.682 L 157.084 131.682 C 155.462 131.682 154.159 130.379 154.159 128.757 C 154.159 127.454 154.982 126.333 156.227 125.957 L 181.987 118.219 C 183.473 117.773 184.662 116.687 185.233 115.259 C 194.433 91.852 198.695 67.371 199.965 51.68 C 200.227 48.526 199.015 45.44 196.787 43.211 C 194.559 40.983 191.473 39.771 188.319 40.035 L 188.285 40.035 Z" style="fill: rgb(41, 37, 36);"><title>Logo</title></path><path d="M 267.6 177.71 L 267.6 169.11 L 283.4 169.11 L 283.4 69.71 L 267.6 69.71 L 267.6 61.11 L 328.2 61.11 Q 346.8 61.11 356 69.51 Q 365.2 77.91 365.2 93.91 Q 365.2 109.91 356 118.31 Q 346.8 126.71 328.2 126.71 L 304.8 126.71 L 304.8 118.11 L 326.2 118.11 Q 340.6 118.11 346.7 111.61 Q 352.8 105.11 352.8 93.91 Q 352.8 82.51 346.7 76.11 Q 340.6 69.71 326.2 69.71 L 295.2 69.71 L 295.2 169.11 L 315.4 169.11 L 315.4 177.71 Z M 377.8 177.71 L 377.8 169.51 L 392.8 169.51 L 392.8 69.31 L 377 69.31 L 377 61.11 L 403.4 61.11 L 403.4 169.51 L 417.4 169.51 L 417.4 177.71 Z M 465.39 179.71 Q 452.19 179.71 445.39 173.21 Q 438.59 166.71 438.59 153.11 L 438.59 106.91 L 422.79 106.91 L 422.79 98.71 L 449.39 98.71 L 449.39 152.11 Q 449.39 161.71 453.89 166.21 Q 458.39 170.71 468.19 170.71 Q 475.19 170.71 482.59 168.01 Q 489.99 165.31 498.59 158.11 L 494.59 163.31 L 494.59 106.91 L 479.79 106.91 L 479.79 98.71 L 505.39 98.71 L 505.39 169.51 L 519.19 169.51 L 519.19 177.71 L 495.19 177.71 L 495.19 166.71 L 498.79 165.91 Q 491.39 172.71 482.59 176.21 Q 473.79 179.71 465.39 179.71 Z M 529.39 177.71 L 529.39 169.51 L 544.19 169.51 L 544.19 106.91 L 528.39 106.91 L 528.39 98.71 L 554.39 98.71 L 554.39 109.71 L 551.99 110.51 Q 559.39 103.71 567.99 100.21 Q 576.59 96.71 584.59 96.71 Q 595.79 96.71 601.29 100.71 Q 606.79 104.71 608.99 110.91 L 607.39 110.31 Q 614.99 103.51 623.49 100.11 Q 631.99 96.71 639.99 96.71 Q 653.19 96.71 659.69 103.11 Q 666.19 109.51 666.19 123.31 L 666.19 169.51 L 679.99 169.51 L 679.99 177.71 L 640.79 177.71 L 640.79 169.51 L 655.59 169.51 L 655.59 124.31 Q 655.59 114.71 651.19 110.21 Q 646.79 105.71 637.19 105.71 Q 630.39 105.71 623.19 108.21 Q 615.99 110.71 607.59 118.11 L 609.39 112.71 Q 610.39 115.51 610.59 118.61 Q 610.79 121.71 610.79 123.31 L 610.79 169.51 L 624.39 169.51 L 624.39 177.71 L 585.39 177.71 L 585.39 169.51 L 599.99 169.51 L 599.99 124.31 Q 599.99 114.71 595.69 110.21 Q 591.39 105.71 581.79 105.71 Q 574.99 105.71 567.79 108.21 Q 560.59 110.71 552.19 118.11 L 554.99 114.11 L 554.99 169.51 L 568.59 169.51 L 568.59 177.71 Z M 736.79 179.71 Q 721.99 179.71 712.09 174.31 Q 702.19 168.91 697.19 159.51 Q 692.19 150.11 692.19 138.31 Q 692.19 126.31 697.19 116.91 Q 702.19 107.51 711.49 102.11 Q 720.79 96.71 733.19 96.71 Q 745.79 96.71 754.79 102.11 Q 763.79 107.51 768.59 116.91 Q 773.39 126.31 773.39 138.31 L 773.39 142.31 L 698.99 142.31 L 698.99 133.91 L 763.19 133.91 Q 762.99 125.71 759.29 119.11 Q 755.59 112.51 748.89 108.71 Q 742.19 104.91 733.19 104.91 Q 723.79 104.91 716.89 109.01 Q 709.99 113.11 706.29 120.11 Q 702.59 127.11 702.59 135.71 L 702.59 138.31 Q 702.59 153.11 711.39 162.01 Q 720.19 170.91 736.99 170.91 Q 745.39 170.91 753.69 167.61 Q 761.99 164.31 767.39 159.11 L 772.19 166.71 Q 765.59 172.71 756.19 176.21 Q 746.79 179.71 736.79 179.71 Z" style="fill: rgb(41, 37, 36); text-wrap-mode: nowrap;"/></svg>