<svg xmlns="http://www.w3.org/2000/svg" viewBox="0 0 728 240" width="728" height="240"><defs></defs><g transform="matrix(1,0,0,1,-80,180)">
<g>
	<path d="M345.46875,-8.4296875 C345.46875,-8.4296875 345.46875,-19.0546875 345.46875,-19.0546875 C345.46875,-19.0546875 358.796875,-19.0546875 358.796875,-19.0546875 C358.796875,-19.0546875 358.796875,-102.7421875 358.796875,-102.7421875 C358.796875,-102.7421875 345.46875,-102.7421875 345.46875,-102.7421875 C345.46875,-102.7421875 345.46875,-113.3671875 345.46875,-113.3671875 C345.46875,-113.3671875 401.09375,-113.3671875 401.09375,-113.3671875 Q418.734375,-113.3671875 427.546875,-105.7109375 Q436.375,-98.0703125 436.375,-83.1328125 Q436.375,-68.0078125 427.546875,-60.4453125 Q418.734375,-52.8828125 401.09375,-52.8828125 Q382.015625,-52.8828125 382.015625,-52.8828125 C382.015625,-52.8828125 382.015625,-63.6953125 382.015625,-63.6953125 C382.015625,-63.6953125 398.9375,-63.6953125 398.9375,-63.6953125 Q410.265625,-63.6953125 415.671875,-68.7265625 Q421.078125,-73.7734375 421.078125,-83.1328125 Q421.078125,-92.6640625 415.765625,-97.6953125 Q410.453125,-102.7421875 398.9375,-102.7421875 Q373.546875,-102.7421875 373.546875,-102.7421875 C373.546875,-102.7421875 373.546875,-19.0546875 373.546875,-19.0546875 C373.546875,-19.0546875 391.015625,-19.0546875 391.015625,-19.0546875 C391.015625,-19.0546875 391.015625,-8.4296875 391.015625,-8.4296875 C391.015625,-8.4296875 345.46875,-8.4296875 345.46875,-8.4296875 ZM446.63562774658203,-8.4296875 C446.63562774658203,-8.4296875 446.63562774658203,-18.5078125 446.63562774658203,-18.5078125 C446.63562774658203,-18.5078125 459.05750274658203,-18.5078125 459.05750274658203,-18.5078125 C459.05750274658203,-18.5078125 459.05750274658203,-103.2890625 459.05750274658203,-103.2890625 C459.05750274658203,-103.2890625 445.72937774658203,-103.2890625 445.72937774658203,-103.2890625 C445.72937774658203,-103.2890625 445.72937774658203,-113.3671875 445.72937774658203,-113.3671875 C445.72937774658203,-113.3671875 472.37000274658203,-113.3671875 472.37000274658203,-113.3671875 C472.37000274658203,-113.3671875 472.37000274658203,-18.5078125 472.37000274658203,-18.5078125 C472.37000274658203,-18.5078125 484.24500274658203,-18.5078125 484.24500274658203,-18.5078125 C484.24500274658203,-18.5078125 484.24500274658203,-8.4296875 484.24500274658203,-8.4296875 C484.24500274658203,-8.4296875 446.63562774658203,-8.4296875 446.63562774658203,-8.4296875 ZM526.3675079345703,-6.6328125 Q515.0393829345703,-6.6328125 508.5550079345703,-12.5703125 Q502.0706329345703,-18.5078125 502.0706329345703,-30.9296875 Q502.0706329345703,-69.8046875 502.0706329345703,-69.8046875 C502.0706329345703,-69.8046875 488.7581329345703,-69.8046875 488.7581329345703,-69.8046875 C488.7581329345703,-69.8046875 488.7581329345703,-79.8828125 488.7581329345703,-79.8828125 C488.7581329345703,-79.8828125 515.2112579345703,-79.8828125 515.2112579345703,-79.8828125 C515.2112579345703,-79.8828125 515.2112579345703,-33.4453125 515.2112579345703,-33.4453125 Q515.2112579345703,-25.3515625 518.8987579345703,-21.6640625 Q522.5862579345703,-17.9765625 530.8675079345703,-17.9765625 Q536.6331329345703,-17.9765625 542.8362579345703,-20.2265625 Q549.0550079345703,-22.4765625 555.8987579345703,-28.4140625 Q552.2893829345703,-23.1953125 552.2893829345703,-23.1953125 C552.2893829345703,-23.1953125 552.2893829345703,-69.8046875 552.2893829345703,-69.8046875 C552.2893829345703,-69.8046875 539.8675079345703,-69.8046875 539.8675079345703,-69.8046875 C539.8675079345703,-69.8046875 539.8675079345703,-79.8828125 539.8675079345703,-79.8828125 C539.8675079345703,-79.8828125 565.6175079345703,-79.8828125 565.6175079345703,-79.8828125 C565.6175079345703,-79.8828125 565.6175079345703,-18.5078125 565.6175079345703,-18.5078125 C565.6175079345703,-18.5078125 577.1331329345703,-18.5078125 577.1331329345703,-18.5078125 C577.1331329345703,-18.5078125 577.1331329345703,-8.4296875 577.1331329345703,-8.4296875 C577.1331329345703,-8.4296875 553.1956329345703,-8.4296875 553.1956329345703,-8.4296875 C553.1956329345703,-8.4296875 553.1956329345703,-18.8671875 553.1956329345703,-18.8671875 C553.1956329345703,-18.8671875 556.6175079345703,-19.4140625 556.6175079345703,-19.4140625 Q549.9456329345703,-12.9296875 541.9300079345703,-9.7734375 Q533.9300079345703,-6.6328125 526.3675079345703,-6.6328125 Q526.3675079345703,-6.6328125 526.3675079345703,-6.6328125 ZM585.9456329345703,-8.4296875 C585.9456329345703,-8.4296875 585.9456329345703,-18.5078125 585.9456329345703,-18.5078125 C585.9456329345703,-18.5078125 598.3675079345703,-18.5078125 598.3675079345703,-18.5078125 C598.3675079345703,-18.5078125 598.3675079345703,-69.8046875 598.3675079345703,-69.8046875 C598.3675079345703,-69.8046875 585.0550079345703,-69.8046875 585.0550079345703,-69.8046875 C585.0550079345703,-69.8046875 585.0550079345703,-79.8828125 585.0550079345703,-79.8828125 C585.0550079345703,-79.8828125 610.9768829345703,-79.8828125 610.9768829345703,-79.8828125 C610.9768829345703,-79.8828125 610.9768829345703,-69.4453125 610.9768829345703,-69.4453125 C610.9768829345703,-69.4453125 608.6331329345703,-68.7265625 608.6331329345703,-68.7265625 Q615.4768829345703,-75.2109375 623.1175079345703,-78.4453125 Q630.7737579345703,-81.6953125 638.3362579345703,-81.6953125 Q648.2268829345703,-81.6953125 653.2581329345703,-77.9140625 Q658.3050079345703,-74.1328125 660.4768829345703,-68.1953125 Q658.6800079345703,-68.9140625 658.6800079345703,-68.9140625 Q665.3362579345703,-75.3828125 673.0706329345703,-78.5390625 Q680.8050079345703,-81.6953125 688.1956329345703,-81.6953125 Q699.8987579345703,-81.6953125 705.9143829345703,-75.7421875 Q711.9456329345703,-69.8046875 711.9456329345703,-57.3828125 Q711.9456329345703,-18.5078125 711.9456329345703,-18.5078125 C711.9456329345703,-18.5078125 723.4768829345703,-18.5078125 723.4768829345703,-18.5078125 C723.4768829345703,-18.5078125 723.4768829345703,-8.4296875 723.4768829345703,-8.4296875 C723.4768829345703,-8.4296875 686.5706329345703,-8.4296875 686.5706329345703,-8.4296875 C686.5706329345703,-8.4296875 686.5706329345703,-18.5078125 686.5706329345703,-18.5078125 C686.5706329345703,-18.5078125 698.6331329345703,-18.5078125 698.6331329345703,-18.5078125 C698.6331329345703,-18.5078125 698.6331329345703,-54.8671875 698.6331329345703,-54.8671875 Q698.6331329345703,-62.9765625 695.1175079345703,-66.6640625 Q691.6175079345703,-70.3515625 683.6956329345703,-70.3515625 Q678.1175079345703,-70.3515625 672.0862579345703,-68.1796875 Q666.0550079345703,-66.0234375 659.3987579345703,-60.0859375 Q660.8362579345703,-66.3828125 660.8362579345703,-66.3828125 Q661.5550079345703,-64.0546875 661.7268829345703,-61.3515625 Q661.9143829345703,-58.6484375 661.9143829345703,-57.3828125 Q661.9143829345703,-18.5078125 661.9143829345703,-18.5078125 C661.9143829345703,-18.5078125 673.2581329345703,-18.5078125 673.2581329345703,-18.5078125 C673.2581329345703,-18.5078125 673.2581329345703,-8.4296875 673.2581329345703,-8.4296875 C673.2581329345703,-8.4296875 636.5393829345703,-8.4296875 636.5393829345703,-8.4296875 C636.5393829345703,-8.4296875 636.5393829345703,-18.5078125 636.5393829345703,-18.5078125 C636.5393829345703,-18.5078125 648.7737579345703,-18.5078125 648.7737579345703,-18.5078125 C648.7737579345703,-18.5078125 648.7737579345703,-54.8671875 648.7737579345703,-54.8671875 Q648.7737579345703,-62.9765625 645.1643829345703,-66.6640625 Q641.5706329345703,-70.3515625 633.8362579345703,-70.3515625 Q628.0706329345703,-70.3515625 622.0393829345703,-68.1796875 Q616.0081329345703,-66.0234375 609.3518829345703,-60.0859375 Q611.6956329345703,-64.4140625 611.6956329345703,-64.4140625 C611.6956329345703,-64.4140625 611.6956329345703,-18.5078125 611.6956329345703,-18.5078125 C611.6956329345703,-18.5078125 623.0393829345703,-18.5078125 623.0393829345703,-18.5078125 C623.0393829345703,-18.5078125 623.0393829345703,-8.4296875 623.0393829345703,-8.4296875 C623.0393829345703,-8.4296875 585.9456329345703,-8.4296875 585.9456329345703,-8.4296875 ZM774.7669067382813,-6.6328125 Q761.2669067382813,-6.6328125 752.0012817382813,-11.5703125 Q742.7356567382813,-16.5234375 738.1419067382813,-25.0703125 Q733.5481567382813,-33.6328125 733.5481567382813,-44.0703125 Q733.5481567382813,-54.6953125 738.1419067382813,-63.1484375 Q742.7356567382813,-71.6171875 751.1887817382813,-76.6484375 Q759.6575317382813,-81.6953125 771.1731567382813,-81.6953125 Q782.6887817382813,-81.6953125 790.9700317382813,-76.6484375 Q799.2512817382813,-71.6171875 803.6575317382813,-63.2421875 Q808.0794067382813,-54.8671875 808.0794067382813,-44.0703125 Q808.0794067382813,-38.8515625 808.0794067382813,-38.8515625 C808.0794067382813,-38.8515625 741.4700317382813,-38.8515625 741.4700317382813,-38.8515625 C741.4700317382813,-38.8515625 741.4700317382813,-49.2890625 741.4700317382813,-49.2890625 C741.4700317382813,-49.2890625 795.4700317382813,-49.2890625 795.4700317382813,-49.2890625 Q795.4700317382813,-55.2265625 792.5012817382813,-60.2578125 Q789.5325317382813,-65.3046875 784.0325317382813,-68.4609375 Q778.5481567382813,-71.6171875 771.1731567382813,-71.6171875 Q763.4387817382813,-71.6171875 757.8450317382813,-68.2734375 Q752.2669067382813,-64.9453125 749.2981567382813,-59.4609375 Q746.3294067382813,-53.9765625 746.3294067382813,-47.6640625 Q746.3294067382813,-44.0703125 746.3294067382813,-44.0703125 Q746.3294067382813,-32.0078125 753.6106567382813,-24.8046875 Q760.9075317382813,-17.6171875 775.1262817382813,-17.6171875 Q782.6887817382813,-17.6171875 789.7981567382813,-20.3046875 Q796.9075317382813,-23.0078125 801.5950317382813,-27.5078125 Q807.3450317382813,-17.9765625 807.3450317382813,-17.9765625 Q801.4075317382813,-12.7421875 792.7669067382813,-9.6796875 Q784.1262817382813,-6.6328125 774.7669067382813,-6.6328125 Q774.7669067382813,-6.6328125 774.7669067382813,-6.6328125 Z" fill="#292524"/>
</g>
<g>
	<path d="M80,-140 C80,-140 80,20 80,20 C80,42.07139111000001 97.92860888999999,60 120,60 C120,60 280,60 280,60 C302.07139111000004,60 320,42.07139111000001 320,20 C320,20 320,-140 320,-140 C320,-162.07139111 302.07139111000004,-180 280,-180 C280,-180 120,-180 120,-180 C97.92860888999999,-180 80,-162.07139111 80,-140 ZM268.31518243,-139.96648282 C271.46676852,-140.22115559 274.55468247,-139.01145903 276.78307118,-136.78307017999998 C279.01145988999997,-134.55468133 280.22115273,-131.46676961 279.96648362,-128.31519304 C278.69311864,-112.62096774 274.4273382,-88.14052647 265.22726848,-64.74244355 C264.65425813,-63.30990786 263.47639164,-62.22754951 261.98020333,-61.78186396 C261.98020333,-61.78186396 236.22638892,-54.04617513 236.22638892,-54.04617513 C234.98486001,-53.664161730000004 234.15717084,-52.5499673 234.15717084,-51.24477589 C234.15717084,-49.6212335 235.46237188,-48.316032379999996 237.08591417,-48.316032379999996 C237.08591417,-48.316032379999996 249.37387841,-48.316032379999996 249.37387841,-48.316032379999996 C253.19397334,-48.316032379999996 255.64520481,-44.24126808 253.67148521000001,-40.96234723 C252.39812023000002,-38.829466589999996 251.02925677000002,-36.76024837 249.62855724,-34.72285651 C248.99187475,-33.79966879 248.03685102,-33.13115019 246.95449273,-32.78098257 C246.95449273,-32.78098257 215.8525493,-23.48541377 215.8525493,-23.48541377 C214.61102039,-23.103400369999996 213.78333122,-21.989205939999998 213.78333122,-20.68401453 C213.78333122,-19.06047214 215.08853226,-17.755271020000002 216.71207455,-17.755271020000002 C216.71207455,-17.755271020000002 221.80553445,-17.755271020000002 221.80553445,-17.755271020000002 C226.45330884,-17.755271020000002 228.49070058,-12.216134959999998 224.60693351,-9.66940485 C202.95972892,4.655961750000003 180.77134033,4.114777720000006 166.54149255,0.29468255000000454 C162.49855486,-0.7876855199999966 158.90130269,-2.85690374 155.59055084,-5.4036338499999985 C155.59055084,-5.4036338499999985 132.28797275,17.898950569999997 132.28797275,17.898950569999997 C129.48656883,20.700349810000006 124.90245686,20.700349810000006 122.10105294,17.898950569999997 C119.29964902,15.097551330000002 119.29964902,10.513429360000003 122.10105294,7.712030119999994 C122.10105294,7.712030119999994 147.56835246,-17.755271020000002 147.56835246,-17.755271020000002 C147.56835246,-17.755271020000002 147.72752308,-17.596100379999996 147.72752308,-17.596100379999996 C147.95036098,-18.009940139999998 148.23687102,-18.391953539999996 148.58704347,-18.742130879999998 C148.58704347,-18.742130879999998 198.5029515,-68.68987328 198.5029515,-68.68987328 C201.30435057,-71.49127252 201.30435057,-76.0753945 198.5029515,-78.87679374 C195.70155244,-81.67819783 191.11743076,-81.67819783 188.3160317,-78.87679374 C188.3160317,-78.87679374 145.56280164999998,-36.155392199999994 145.56280164999998,-36.155392199999994 C142.72956652,-33.32215689 137.9226118,-34.75469258 137.60427055,-38.76579445 C136.23540466,-55.70155359 140.56484509,-77.95360601 160.71584681000002,-98.10460415 C189.71673123,-127.10549526 241.63819007,-137.80176125 268.28335608,-139.96648282 C268.28335608,-139.96648282 268.31518243,-139.96648282 268.31518243,-139.96648282 Z" fill="#292524"/>
</g></g></svg>