<svg xmlns="http://www.w3.org/2000/svg" viewBox="0 0 640 640">
    <style>
        @media (prefers-color-scheme: dark) {
            path { fill: #f5f5f4; }
        }

        @media (prefers-color-scheme: light) {
            path { fill: #292524; }
        }
    </style>

    <path d="M128 128C128 92.7 156.7 64 192 64L448 64C483.3 64 512 92.7 512 128L512 304.6C500.8 307.8 490 312.7 480 319.3L480 128C480 110.3 465.7 96 448 96L192 96C174.3 96 160 110.3 160 128L160 512C160 529.7 174.3 544 192 544L284.6 544L279.3 576L192 576C156.7 576 128 547.3 128 512L128 128zM224 208C224 199.2 231.2 192 240 192L400 192C408.8 192 416 199.2 416 208C416 216.8 408.8 224 400 224L240 224C231.2 224 224 216.8 224 208zM224 304C224 295.2 231.2 288 240 288L400 288C408.8 288 416 295.2 416 304C416 312.8 408.8 320 400 320L240 320C231.2 320 224 312.8 224 304zM224 400C224 391.2 231.2 384 240 384L336 384C344.8 384 352 391.2 352 400C352 408.8 344.8 416 336 416L240 416C231.2 416 224 408.8 224 400zM320 622.8L332.4 548.2C334.6 535 340.8 522.9 350.3 513.5L495.8 368C522.3 341.5 565.3 341.5 591.8 368C618.3 394.5 618.3 437.5 591.8 464L446.3 609.5C436.9 618.9 424.7 625.2 411.6 627.4L337 639.8C327.2 641.4 318.4 632.6 320 622.8zM355.6 604.3L406.4 595.8C413 594.7 419 591.6 423.8 586.9L526 484.7L475.3 434L475.2 433.9L373 536.1C368.3 540.8 365.2 546.9 364.1 553.5L355.6 604.3zM497.9 411.3L548.6 462L569.3 441.3C583.3 427.3 583.3 404.6 569.3 390.6C555.3 376.6 532.6 376.6 518.6 390.6L497.9 411.3z"/>
</svg>
